<svg width="474" height="555" viewBox="0 0 474 555" fill="none" xmlns="http://www.w3.org/2000/svg">
<g filter="url(#filter0_d_2_115)">
<rect x="2" width="470" height="551" rx="24" fill="white"/>
</g>
<path d="M144.769 380.828C143.905 379.916 143.209 379.256 142.681 378.848C141.433 377.936 139.969 377.48 138.289 377.48C135.745 377.48 133.669 378.404 132.061 380.252C130.645 381.86 129.937 383.78 129.937 386.012C129.937 388.556 130.849 390.668 132.673 392.348C134.233 393.788 136.105 394.508 138.289 394.508C139.993 394.508 141.529 393.992 142.897 392.96C143.257 392.696 143.917 392.084 144.877 391.124L147.901 394.004C146.269 395.66 144.721 396.836 143.257 397.532C141.817 398.204 140.161 398.54 138.289 398.54C135.985 398.54 133.849 397.964 131.881 396.812C129.961 395.732 128.449 394.244 127.345 392.348C126.193 390.404 125.617 388.292 125.617 386.012C125.617 383.732 126.193 381.62 127.345 379.676C128.449 377.78 129.961 376.28 131.881 375.176C133.849 374.048 135.997 373.484 138.325 373.484C140.125 373.484 141.769 373.832 143.257 374.528C144.769 375.224 146.281 376.364 147.793 377.948L144.769 380.828ZM157.873 381.512C160.417 381.512 162.529 382.436 164.209 384.284C165.625 385.868 166.333 387.776 166.333 390.008C166.333 392.576 165.409 394.7 163.561 396.38C161.977 397.82 160.081 398.54 157.873 398.54C155.305 398.54 153.193 397.604 151.537 395.732C150.097 394.148 149.377 392.24 149.377 390.008C149.377 387.44 150.301 385.328 152.149 383.672C153.733 382.232 155.641 381.512 157.873 381.512ZM157.873 385.22C156.481 385.22 155.377 385.724 154.561 386.732C153.865 387.596 153.517 388.688 153.517 390.008C153.517 391.52 153.973 392.732 154.885 393.644C155.677 394.412 156.673 394.796 157.873 394.796C159.241 394.796 160.333 394.292 161.149 393.284C161.845 392.42 162.193 391.328 162.193 390.008C162.193 388.496 161.737 387.296 160.825 386.408C160.057 385.616 159.073 385.22 157.873 385.22ZM181.11 383.42C182.454 382.148 184.062 381.512 185.934 381.512C188.214 381.512 190.014 382.304 191.334 383.888C191.91 384.608 192.318 385.388 192.558 386.228C192.798 387.044 192.918 388.112 192.918 389.432V398H188.814V389.72C188.814 387.992 188.586 386.792 188.13 386.12C187.722 385.52 187.074 385.22 186.186 385.22C185.13 385.22 184.338 385.58 183.81 386.3C183.354 386.924 183.126 388.172 183.126 390.044V398H179.022V389.72C179.022 387.992 178.782 386.792 178.302 386.12C177.894 385.52 177.246 385.22 176.358 385.22C175.302 385.22 174.498 385.592 173.946 386.336C173.49 386.936 173.262 388.172 173.262 390.044V398H169.158V382.052H173.262V382.88C173.862 382.352 174.414 381.992 174.918 381.8C175.422 381.608 176.034 381.512 176.754 381.512C178.362 381.512 179.814 382.148 181.11 383.42ZM208.673 383.42C210.017 382.148 211.625 381.512 213.497 381.512C215.777 381.512 217.577 382.304 218.897 383.888C219.473 384.608 219.881 385.388 220.121 386.228C220.361 387.044 220.481 388.112 220.481 389.432V398H216.377V389.72C216.377 387.992 216.149 386.792 215.693 386.12C215.285 385.52 214.637 385.22 213.749 385.22C212.693 385.22 211.901 385.58 211.373 386.3C210.917 386.924 210.689 388.172 210.689 390.044V398H206.585V389.72C206.585 387.992 206.345 386.792 205.865 386.12C205.457 385.52 204.809 385.22 203.921 385.22C202.865 385.22 202.061 385.592 201.509 386.336C201.053 386.936 200.825 388.172 200.825 390.044V398H196.721V382.052H200.825V382.88C201.425 382.352 201.977 381.992 202.481 381.8C202.985 381.608 203.597 381.512 204.316 381.512C205.925 381.512 207.377 382.148 208.673 383.42ZM228.387 382.052V398H224.283V382.052H228.387ZM226.335 374.096C227.055 374.096 227.667 374.348 228.171 374.852C228.675 375.332 228.927 375.92 228.927 376.616C228.927 377.336 228.675 377.948 228.171 378.452C227.667 378.932 227.055 379.172 226.335 379.172C225.639 379.172 225.039 378.932 224.535 378.452C224.031 377.948 223.779 377.336 223.779 376.616C223.779 375.92 224.031 375.332 224.535 374.852C225.039 374.348 225.639 374.096 226.335 374.096ZM236.512 385.724V392.852C236.512 393.452 236.572 393.86 236.692 394.076C236.812 394.292 237.016 394.4 237.304 394.4C237.712 394.4 238.348 394.268 239.212 394.004V397.892C238.324 398.156 237.532 398.288 236.836 398.288C235.324 398.288 234.184 397.76 233.416 396.704C232.744 395.768 232.408 394.484 232.408 392.852V385.724H230.752V382.052H232.408V378.632L236.512 377.012V382.052H238.96V385.724H236.512ZM253.813 383.42C255.157 382.148 256.765 381.512 258.637 381.512C260.917 381.512 262.717 382.304 264.037 383.888C264.613 384.608 265.021 385.388 265.261 386.228C265.501 387.044 265.621 388.112 265.621 389.432V398H261.517V389.72C261.517 387.992 261.289 386.792 260.833 386.12C260.425 385.52 259.777 385.22 258.889 385.22C257.833 385.22 257.041 385.58 256.513 386.3C256.057 386.924 255.829 388.172 255.829 390.044V398H251.725V389.72C251.725 387.992 251.485 386.792 251.005 386.12C250.597 385.52 249.949 385.22 249.061 385.22C248.005 385.22 247.201 385.592 246.649 386.336C246.193 386.936 245.965 388.172 245.965 390.044V398H241.861V382.052H245.965V382.88C246.565 382.352 247.117 381.992 247.621 381.8C248.125 381.608 248.737 381.512 249.457 381.512C251.065 381.512 252.517 382.148 253.813 383.42ZM272.628 391.556C273.204 393.74 274.536 394.832 276.624 394.832C278.4 394.832 279.732 394.124 280.62 392.708C280.668 392.636 280.74 392.528 280.836 392.384L284.292 393.824C283.788 394.664 283.392 395.264 283.104 395.624C282.84 395.96 282.456 396.332 281.952 396.74C280.44 397.94 278.664 398.54 276.624 398.54C274.128 398.54 272.088 397.616 270.504 395.768C269.112 394.16 268.416 392.24 268.416 390.008C268.416 387.464 269.292 385.352 271.044 383.672C272.58 382.232 274.392 381.512 276.48 381.512C278.976 381.512 280.968 382.448 282.456 384.32C283.752 385.952 284.4 387.98 284.4 390.404C284.4 390.596 284.388 390.98 284.364 391.556H272.628ZM280.296 388.496C279.6 386.264 278.328 385.148 276.48 385.148C275.52 385.148 274.704 385.436 274.032 386.012C273.36 386.588 272.892 387.416 272.628 388.496H280.296ZM291.282 382.88C291.906 382.376 292.494 382.028 293.046 381.836C293.598 381.62 294.246 381.512 294.99 381.512C295.926 381.512 296.826 381.704 297.69 382.088C298.578 382.448 299.334 382.964 299.958 383.636C301.11 384.884 301.686 386.816 301.686 389.432V398H297.582V389.684C297.582 387.884 297.318 386.684 296.79 386.084C296.286 385.508 295.578 385.22 294.666 385.22C293.49 385.22 292.614 385.592 292.038 386.336C291.534 386.96 291.282 388.184 291.282 390.008V398H287.178V382.052H291.282V382.88ZM309.778 385.724V392.852C309.778 393.452 309.838 393.86 309.958 394.076C310.078 394.292 310.282 394.4 310.57 394.4C310.978 394.4 311.614 394.268 312.478 394.004V397.892C311.59 398.156 310.798 398.288 310.102 398.288C308.59 398.288 307.45 397.76 306.682 396.704C306.01 395.768 305.674 394.484 305.674 392.852V385.724H304.018V382.052H305.674V378.632L309.778 377.012V382.052H312.226V385.724H309.778ZM327.637 385.724V392.852C327.637 393.452 327.697 393.86 327.817 394.076C327.937 394.292 328.141 394.4 328.429 394.4C328.837 394.4 329.473 394.268 330.337 394.004V397.892C329.449 398.156 328.657 398.288 327.961 398.288C326.449 398.288 325.309 397.76 324.541 396.704C323.869 395.768 323.533 394.484 323.533 392.852V385.724H321.877V382.052H323.533V378.632L327.637 377.012V382.052H330.085V385.724H327.637ZM340.158 381.512C342.702 381.512 344.814 382.436 346.494 384.284C347.91 385.868 348.618 387.776 348.618 390.008C348.618 392.576 347.694 394.7 345.846 396.38C344.262 397.82 342.366 398.54 340.158 398.54C337.59 398.54 335.478 397.604 333.822 395.732C332.382 394.148 331.662 392.24 331.662 390.008C331.662 387.44 332.586 385.328 334.434 383.672C336.018 382.232 337.926 381.512 340.158 381.512ZM340.158 385.22C338.766 385.22 337.662 385.724 336.846 386.732C336.15 387.596 335.802 388.688 335.802 390.008C335.802 391.52 336.258 392.732 337.17 393.644C337.962 394.412 338.958 394.796 340.158 394.796C341.526 394.796 342.618 394.292 343.434 393.284C344.13 392.42 344.478 391.328 344.478 390.008C344.478 388.496 344.022 387.296 343.11 386.408C342.342 385.616 341.358 385.22 340.158 385.22ZM105.055 421.128L101.563 423.288C100.987 422.4 100.543 421.812 100.231 421.524C99.5351 420.804 98.6831 420.444 97.6751 420.444C96.6431 420.444 95.8031 420.768 95.1551 421.416C94.6031 421.968 94.3271 422.652 94.3271 423.468C94.3271 424.596 95.2631 425.508 97.1351 426.204L99.4031 427.068C101.539 427.884 103.087 428.892 104.047 430.092C104.887 431.148 105.307 432.408 105.307 433.872C105.307 436.176 104.419 438.072 102.643 439.56C101.107 440.88 99.2711 441.54 97.1351 441.54C95.4071 441.54 93.8711 441.084 92.5271 440.172C91.3511 439.38 90.4631 438.324 89.8631 437.004C89.6471 436.524 89.3711 435.612 89.0351 434.268L93.1751 433.188L93.2471 433.44C93.3191 433.752 93.3671 433.956 93.3911 434.052C93.9911 436.38 95.2631 437.544 97.2071 437.544C98.3351 437.544 99.2711 437.148 100.015 436.356C100.663 435.66 100.987 434.844 100.987 433.908C100.987 433.188 100.723 432.6 100.195 432.144C99.6911 431.664 98.8031 431.172 97.5311 430.668L95.3711 429.84C91.8431 428.496 90.0791 426.36 90.0791 423.432C90.0791 421.296 90.9071 419.556 92.5631 418.212C93.9791 417.06 95.7071 416.484 97.7471 416.484C99.9551 416.484 101.803 417.24 103.291 418.752C103.747 419.208 104.335 420 105.055 421.128ZM112.67 425.88C113.294 425.376 113.882 425.028 114.434 424.836C114.986 424.62 115.634 424.512 116.378 424.512C117.314 424.512 118.214 424.704 119.078 425.088C119.966 425.448 120.722 425.964 121.346 426.636C122.498 427.884 123.074 429.816 123.074 432.432V441H118.97V432.684C118.97 430.884 118.706 429.684 118.178 429.084C117.674 428.508 116.966 428.22 116.054 428.22C114.878 428.22 114.002 428.592 113.426 429.336C112.922 429.96 112.67 431.184 112.67 433.008V441H108.566V416.988H112.67V425.88ZM142.651 441H138.547V439.992C137.803 440.544 137.107 440.94 136.459 441.18C135.811 441.42 135.079 441.54 134.263 441.54C131.767 441.54 129.691 440.604 128.035 438.732C126.595 437.124 125.875 435.216 125.875 433.008C125.875 430.464 126.787 428.352 128.611 426.672C130.219 425.232 132.103 424.512 134.263 424.512C135.079 424.512 135.811 424.632 136.459 424.872C137.107 425.088 137.803 425.484 138.547 426.06V425.052H142.651V441ZM134.335 428.22C132.967 428.22 131.875 428.724 131.059 429.732C130.363 430.596 130.015 431.688 130.015 433.008C130.015 434.52 130.471 435.732 131.383 436.644C132.175 437.412 133.159 437.796 134.335 437.796C135.679 437.796 136.759 437.292 137.575 436.284C138.271 435.42 138.619 434.328 138.619 433.008C138.619 431.496 138.175 430.296 137.287 429.408C136.495 428.616 135.511 428.22 134.335 428.22ZM150.569 426.06C151.481 425.316 152.525 424.944 153.701 424.944C154.061 424.944 154.565 424.98 155.213 425.052V428.724C154.541 428.676 154.049 428.652 153.737 428.652C152.465 428.652 151.601 429.036 151.145 429.804C150.761 430.5 150.569 431.676 150.569 433.332V441H146.465V425.052H150.569V426.06ZM161.362 425.052V441H157.258V425.052H161.362ZM159.31 417.096C160.03 417.096 160.642 417.348 161.146 417.852C161.65 418.332 161.902 418.92 161.902 419.616C161.902 420.336 161.65 420.948 161.146 421.452C160.642 421.932 160.03 422.172 159.31 422.172C158.614 422.172 158.014 421.932 157.51 421.452C157.006 420.948 156.754 420.336 156.754 419.616C156.754 418.92 157.006 418.332 157.51 417.852C158.014 417.348 158.614 417.096 159.31 417.096ZM168.227 426.96H164.951L164.483 416.268H168.695L168.227 426.96ZM187.58 441H183.476V439.992C182.732 440.544 182.036 440.94 181.388 441.18C180.74 441.42 180.008 441.54 179.192 441.54C176.696 441.54 174.62 440.604 172.964 438.732C171.524 437.124 170.804 435.216 170.804 433.008C170.804 430.464 171.716 428.352 173.54 426.672C175.148 425.232 177.032 424.512 179.192 424.512C180.008 424.512 180.74 424.632 181.388 424.872C182.036 425.088 182.732 425.484 183.476 426.06V425.052H187.58V441ZM179.264 428.22C177.896 428.22 176.804 428.724 175.988 429.732C175.292 430.596 174.944 431.688 174.944 433.008C174.944 434.52 175.4 435.732 176.312 436.644C177.104 437.412 178.088 437.796 179.264 437.796C180.608 437.796 181.688 437.292 182.504 436.284C183.2 435.42 183.548 434.328 183.548 433.008C183.548 431.496 183.104 430.296 182.216 429.408C181.424 428.616 180.44 428.22 179.264 428.22ZM195.498 425.88C196.122 425.376 196.71 425.028 197.262 424.836C197.814 424.62 198.462 424.512 199.206 424.512C200.142 424.512 201.042 424.704 201.906 425.088C202.794 425.448 203.55 425.964 204.174 426.636C205.326 427.884 205.902 429.816 205.902 432.432V441H201.798V432.684C201.798 430.884 201.534 429.684 201.006 429.084C200.502 428.508 199.794 428.22 198.882 428.22C197.706 428.22 196.83 428.592 196.254 429.336C195.75 429.96 195.498 431.184 195.498 433.008V441H191.394V416.988H195.498V425.88ZM229.6 430.488C228.688 429.552 227.98 428.94 227.476 428.652C226.972 428.364 226.324 428.22 225.532 428.22C224.116 428.22 223 428.724 222.184 429.732C221.488 430.596 221.14 431.688 221.14 433.008C221.14 434.544 221.596 435.756 222.508 436.644C223.3 437.412 224.32 437.796 225.568 437.796C226.36 437.796 227.056 437.628 227.656 437.292C228.28 436.932 228.964 436.32 229.708 435.456L232.444 438.084C231.316 439.308 230.224 440.196 229.168 440.748C228.112 441.276 226.9 441.54 225.532 441.54C222.94 441.54 220.816 440.616 219.16 438.768C217.72 437.16 217 435.24 217 433.008C217 430.44 217.924 428.328 219.772 426.672C221.38 425.232 223.3 424.512 225.532 424.512C226.852 424.512 228.028 424.776 229.06 425.304C230.116 425.808 231.208 426.648 232.336 427.824L229.6 430.488ZM241.773 424.512C244.317 424.512 246.429 425.436 248.109 427.284C249.525 428.868 250.233 430.776 250.233 433.008C250.233 435.576 249.309 437.7 247.461 439.38C245.877 440.82 243.981 441.54 241.773 441.54C239.205 441.54 237.093 440.604 235.437 438.732C233.997 437.148 233.277 435.24 233.277 433.008C233.277 430.44 234.201 428.328 236.049 426.672C237.633 425.232 239.541 424.512 241.773 424.512ZM241.773 428.22C240.381 428.22 239.277 428.724 238.461 429.732C237.765 430.596 237.417 431.688 237.417 433.008C237.417 434.52 237.873 435.732 238.785 436.644C239.577 437.412 240.573 437.796 241.773 437.796C243.141 437.796 244.233 437.292 245.049 436.284C245.745 435.42 246.093 434.328 246.093 433.008C246.093 431.496 245.637 430.296 244.725 429.408C243.957 428.616 242.973 428.22 241.773 428.22ZM265.01 426.42C266.354 425.148 267.962 424.512 269.834 424.512C272.114 424.512 273.914 425.304 275.234 426.888C275.81 427.608 276.218 428.388 276.458 429.228C276.698 430.044 276.818 431.112 276.818 432.432V441H272.714V432.72C272.714 430.992 272.486 429.792 272.03 429.12C271.622 428.52 270.974 428.22 270.086 428.22C269.03 428.22 268.238 428.58 267.71 429.3C267.254 429.924 267.026 431.172 267.026 433.044V441H262.922V432.72C262.922 430.992 262.682 429.792 262.202 429.12C261.794 428.52 261.146 428.22 260.258 428.22C259.202 428.22 258.398 428.592 257.846 429.336C257.39 429.936 257.162 431.172 257.162 433.044V441H253.058V425.052H257.162V425.88C257.762 425.352 258.314 424.992 258.818 424.8C259.322 424.608 259.934 424.512 260.654 424.512C262.262 424.512 263.714 425.148 265.01 426.42ZM280.48 425.052H284.584V426.06C285.328 425.484 286.024 425.088 286.672 424.872C287.32 424.632 288.052 424.512 288.868 424.512C291.364 424.512 293.44 425.448 295.096 427.32C296.536 428.928 297.256 430.836 297.256 433.044C297.256 435.564 296.344 437.664 294.52 439.344C292.912 440.808 291.028 441.54 288.868 441.54C288.052 441.54 287.32 441.42 286.672 441.18C286.024 440.94 285.328 440.544 284.584 439.992V449.388H280.48V425.052ZM288.796 437.796C290.164 437.796 291.256 437.304 292.072 436.32C292.768 435.432 293.116 434.34 293.116 433.044C293.116 431.532 292.66 430.32 291.748 429.408C290.956 428.616 289.972 428.22 288.796 428.22C287.452 428.22 286.384 428.724 285.592 429.732C284.896 430.62 284.548 431.724 284.548 433.044C284.548 434.556 284.992 435.756 285.88 436.644C286.648 437.412 287.62 437.796 288.796 437.796ZM304.202 441H300.098V416.988H304.202V441ZM312.147 425.052V441H308.043V425.052H312.147ZM310.095 417.096C310.815 417.096 311.427 417.348 311.931 417.852C312.435 418.332 312.687 418.92 312.687 419.616C312.687 420.336 312.435 420.948 311.931 421.452C311.427 421.932 310.815 422.172 310.095 422.172C309.399 422.172 308.799 421.932 308.295 421.452C307.791 420.948 307.539 420.336 307.539 419.616C307.539 418.92 307.791 418.332 308.295 417.852C308.799 417.348 309.399 417.096 310.095 417.096ZM331.756 441H327.652V439.992C326.908 440.544 326.212 440.94 325.564 441.18C324.916 441.42 324.184 441.54 323.368 441.54C320.872 441.54 318.796 440.604 317.14 438.732C315.7 437.124 314.98 435.216 314.98 433.008C314.98 430.464 315.892 428.352 317.716 426.672C319.324 425.232 321.208 424.512 323.368 424.512C324.184 424.512 324.916 424.632 325.564 424.872C326.212 425.088 326.908 425.484 327.652 426.06V425.052H331.756V441ZM323.44 428.22C322.072 428.22 320.98 428.724 320.164 429.732C319.468 430.596 319.12 431.688 319.12 433.008C319.12 434.52 319.576 435.732 320.488 436.644C321.28 437.412 322.264 437.796 323.44 437.796C324.784 437.796 325.864 437.292 326.68 436.284C327.376 435.42 327.724 434.328 327.724 433.008C327.724 431.496 327.28 430.296 326.392 429.408C325.6 428.616 324.616 428.22 323.44 428.22ZM339.674 425.88C340.298 425.376 340.886 425.028 341.438 424.836C341.99 424.62 342.638 424.512 343.382 424.512C344.318 424.512 345.218 424.704 346.082 425.088C346.97 425.448 347.726 425.964 348.35 426.636C349.502 427.884 350.078 429.816 350.078 432.432V441H345.974V432.684C345.974 430.884 345.71 429.684 345.182 429.084C344.678 428.508 343.97 428.22 343.058 428.22C341.882 428.22 341.006 428.592 340.43 429.336C339.926 429.96 339.674 431.184 339.674 433.008V441H335.57V425.052H339.674V425.88ZM365.479 430.488C364.567 429.552 363.859 428.94 363.355 428.652C362.851 428.364 362.203 428.22 361.411 428.22C359.995 428.22 358.879 428.724 358.063 429.732C357.367 430.596 357.019 431.688 357.019 433.008C357.019 434.544 357.475 435.756 358.387 436.644C359.179 437.412 360.199 437.796 361.447 437.796C362.239 437.796 362.935 437.628 363.535 437.292C364.159 436.932 364.843 436.32 365.587 435.456L368.323 438.084C367.195 439.308 366.103 440.196 365.047 440.748C363.991 441.276 362.779 441.54 361.411 441.54C358.819 441.54 356.695 440.616 355.039 438.768C353.599 437.16 352.879 435.24 352.879 433.008C352.879 430.44 353.803 428.328 355.651 426.672C357.259 425.232 359.179 424.512 361.411 424.512C362.731 424.512 363.907 424.776 364.939 425.304C365.995 425.808 367.087 426.648 368.215 427.824L365.479 430.488ZM373.403 434.556C373.979 436.74 375.311 437.832 377.399 437.832C379.175 437.832 380.507 437.124 381.395 435.708C381.443 435.636 381.515 435.528 381.611 435.384L385.067 436.824C384.563 437.664 384.167 438.264 383.879 438.624C383.615 438.96 383.231 439.332 382.727 439.74C381.215 440.94 379.439 441.54 377.399 441.54C374.903 441.54 372.863 440.616 371.279 438.768C369.887 437.16 369.191 435.24 369.191 433.008C369.191 430.464 370.067 428.352 371.819 426.672C373.355 425.232 375.167 424.512 377.255 424.512C379.751 424.512 381.743 425.448 383.231 427.32C384.527 428.952 385.175 430.98 385.175 433.404C385.175 433.596 385.163 433.98 385.139 434.556H373.403ZM381.071 431.496C380.375 429.264 379.103 428.148 377.255 428.148C376.295 428.148 375.479 428.436 374.807 429.012C374.135 429.588 373.667 430.416 373.403 431.496H381.071Z" fill="#303030"/>
<path d="M291 211.168V119.11C282.013 119.11 274.661 111.41 274.661 101.999H199.339C199.339 111.41 191.986 119.11 183 119.11V238.888C191.986 238.888 199.339 246.588 199.339 255.999H266" stroke="#303030" stroke-width="6" stroke-miterlimit="10"/>
<path d="M260.004 272.999H172.452C169.993 272.999 168 271.006 168 268.547V89.4504C168 86.9918 169.993 84.9988 172.452 84.9988H301.549C304.007 84.9988 306 86.9918 306 89.4504V221.036" stroke="#303030" stroke-width="6" stroke-miterlimit="10"/>
<path d="M199 129.999H275" stroke="#303030" stroke-width="6" stroke-miterlimit="10"/>
<path d="M199 146.999H275" stroke="#303030" stroke-width="6" stroke-miterlimit="10"/>
<path d="M199 163.999H275" stroke="#303030" stroke-width="6" stroke-miterlimit="10"/>
<path d="M199 180.999H275" stroke="#303030" stroke-width="6" stroke-miterlimit="10"/>
<path d="M199 197.999H275" stroke="#303030" stroke-width="6" stroke-miterlimit="10"/>
<path d="M199 213.999H266" stroke="#303030" stroke-width="6" stroke-miterlimit="10"/>
<path d="M199 230.999H256" stroke="#303030" stroke-width="6" stroke-miterlimit="10"/>
<path d="M273.571 260.001C273.571 260.001 271.977 260.001 271.268 260.178H270.914C270.914 260.178 269.497 260.533 268.788 260.533C268.257 260.533 267.725 260.533 267.725 260.355C267.194 260.001 266.663 258.938 266.131 257.344C265.6 255.75 264.891 254.51 264.005 253.447C263.12 252.561 262.057 251.853 260.285 251.321L259.577 250.967C258.514 250.613 257.628 250.081 257.274 249.55C256.92 249.018 257.097 248.133 257.274 247.07V245.653C257.628 244.413 257.805 243.173 257.274 241.933C256.92 240.515 255.857 239.275 255.148 238.213C254.263 237.15 253.554 236.087 253.554 235.201C253.554 234.315 254.44 233.253 255.148 232.19C256.034 231.127 257.097 229.887 257.451 228.47C257.805 227.053 257.451 225.635 257.451 224.218V223.51C257.274 222.447 257.097 221.561 257.451 221.03C257.805 220.498 258.868 219.79 260.285 219.258C261.88 218.727 262.943 218.018 264.005 217.133C264.891 216.247 265.423 215.007 266.131 213.413L266.485 212.704C266.84 211.818 267.371 210.755 267.903 210.401C268.257 210.401 268.611 210.224 269.143 210.224C269.851 210.224 270.56 210.224 271.268 210.578H271.623C271.623 210.578 273.04 210.933 273.925 210.933C274.457 210.933 274.988 210.933 275.52 210.933C276.937 210.578 278.177 209.515 279.24 208.807C280.303 207.921 281.365 207.213 282.251 207.213C283.137 207.213 284.2 208.098 285.263 208.807C286.325 209.693 287.388 210.755 288.805 210.933C290.045 211.464 291.463 210.933 292.88 210.933H293.234C293.234 210.933 294.651 210.578 295.36 210.578C295.891 210.578 296.423 210.578 296.423 210.755C296.954 211.11 297.485 212.173 298.017 213.767C298.548 215.361 299.257 216.601 300.143 217.664C301.028 218.55 302.268 219.258 303.863 219.79L304.571 220.144C305.634 220.498 306.52 221.03 306.874 221.561C307.228 222.093 307.051 222.978 306.874 224.041V225.458C306.52 226.698 306.343 227.938 306.874 229.178C307.228 230.595 308.291 231.835 309 232.898C309.885 233.961 310.594 235.024 310.594 235.91C310.594 236.795 309.708 237.858 309 238.921C308.114 239.984 307.051 241.047 306.697 242.641C306.343 244.058 306.697 245.475 306.697 246.893V247.601C306.874 248.664 307.051 249.55 306.697 250.081C306.343 250.613 305.28 251.321 303.863 251.675C302.268 252.207 301.028 252.915 299.965 253.801C299.08 254.687 298.548 255.927 297.84 257.521L297.485 258.23C297.131 259.115 296.6 260.178 296.068 260.533C295.183 260.887 294.12 260.71 292.703 260.533H292.348C292.348 260.533 290.931 260.178 290.045 260.178C289.514 260.178 288.983 260.178 288.451 260.178C287.034 260.533 285.794 261.595 284.731 262.304C283.668 263.19 282.605 263.898 281.72 263.898C280.834 263.898 279.771 263.013 278.708 262.304C277.645 261.418 276.583 260.355 275.165 260.178C274.634 260.001 274.103 260.001 273.394 260.001" stroke="#A1C9CB" stroke-width="4" stroke-miterlimit="10"/>
<path d="M282 250.998C290.284 250.998 297 244.058 297 235.498C297 226.937 290.284 219.998 282 219.998C273.716 219.998 267 226.937 267 235.498C267 244.058 273.716 250.998 282 250.998Z" stroke="#A1C9CB" stroke-width="4" stroke-miterlimit="10"/>
<path d="M281.542 263.201L292.702 286.23L298.193 280.384H306.696L296.599 259.658" stroke="#A1C9CB" stroke-width="4" stroke-miterlimit="10"/>
<path d="M282.073 263.201L271.09 286.23L265.422 280.384H257.096L267.016 259.658" stroke="#A1C9CB" stroke-width="4" stroke-miterlimit="10"/>
<defs>
<filter id="filter0_d_2_115" x="0" y="0" width="474" height="555" filterUnits="userSpaceOnUse" color-interpolation-filters="sRGB">
<feFlood flood-opacity="0" result="BackgroundImageFix"/>
<feColorMatrix in="SourceAlpha" type="matrix" values="0 0 0 0 0 0 0 0 0 0 0 0 0 0 0 0 0 0 127 0" result="hardAlpha"/>
<feOffset dy="2"/>
<feGaussianBlur stdDeviation="1"/>
<feComposite in2="hardAlpha" operator="out"/>
<feColorMatrix type="matrix" values="0 0 0 0 0.188235 0 0 0 0 0.188235 0 0 0 0 0.188235 0 0 0 0.15 0"/>
<feBlend mode="normal" in2="BackgroundImageFix" result="effect1_dropShadow_2_115"/>
<feBlend mode="normal" in="SourceGraphic" in2="effect1_dropShadow_2_115" result="shape"/>
</filter>
</defs>
</svg>
