<svg width="90" height="90" viewBox="0 0 90 90" fill="none" xmlns="http://www.w3.org/2000/svg">
<g clip-path="url(#clip0_628_14219)">
<path d="M90 45C90 20.1472 69.8528 0 45 0C20.1472 0 0 20.1472 0 45C0 69.8528 20.1472 90 45 90C69.8528 90 90 69.8528 90 45Z" fill="#1BAD4E"/>
<path d="M21.2148 29.5508C21.2148 29.2746 21.4387 29.0508 21.7148 29.0508H32.3708C32.6469 29.0508 32.8708 29.2746 32.8708 29.5508V52.0894C32.8708 52.3655 32.6469 52.5894 32.3708 52.5894H21.7148C21.4387 52.5894 21.2148 52.3655 21.2148 52.0894V29.5508Z" fill="white"/>
<path d="M25.1035 21.3789C25.1035 21.1028 25.3274 20.8789 25.6035 20.8789H28.4828C28.7589 20.8789 28.9828 21.1028 28.9828 21.3789V60.2577C28.9828 60.5338 28.7589 60.7577 28.4828 60.7577H25.6035C25.3274 60.7577 25.1035 60.5338 25.1035 60.2577V21.3789Z" fill="white"/>
<path d="M39.1758 46.3516C39.1758 46.0754 39.3996 45.8516 39.6758 45.8516H50.3317C50.6079 45.8516 50.8317 46.0754 50.8317 46.3516V65.5624C50.8317 65.8386 50.6079 66.0624 50.3317 66.0624H39.6758C39.3996 66.0624 39.1758 65.8386 39.1758 65.5624V46.3516Z" fill="white"/>
<path d="M43.0645 39.3359C43.0645 39.0598 43.2883 38.8359 43.5645 38.8359H46.4437C46.7198 38.8359 46.9437 39.0598 46.9437 39.3359V72.5769C46.9437 72.8531 46.7198 73.0769 46.4437 73.0769H43.5645C43.2883 73.0769 43.0645 72.8531 43.0645 72.5769V39.3359Z" fill="white"/>
<path d="M57.1328 25.7031C57.1328 25.427 57.3567 25.2031 57.6328 25.2031H68.2888C68.5649 25.2031 68.7888 25.427 68.7888 25.7031V56.5333C68.7888 56.8094 68.5649 57.0333 68.2888 57.0333H57.6328C57.3567 57.0333 57.1328 56.8094 57.1328 56.5333V25.7031Z" fill="white"/>
<path d="M61.0215 17.4258C61.0215 17.1496 61.2453 16.9258 61.5215 16.9258H64.4007C64.6769 16.9258 64.9007 17.1496 64.9007 17.4258V64.7587C64.9007 65.0348 64.6769 65.2587 64.4007 65.2587H61.5215C61.2453 65.2587 61.0215 65.0348 61.0215 64.7587V17.4258Z" fill="white"/>
</g>
<defs>
<clipPath id="clip0_628_14219">
<rect width="90" height="90" fill="white"/>
</clipPath>
</defs>
</svg>
