<svg width="240" height="241" viewBox="0 0 240 241" fill="none" xmlns="http://www.w3.org/2000/svg">
<g filter="url(#filter0_d_354_547)">
<rect x="30" y="28.5" width="180" height="180" rx="90" fill="white" shape-rendering="crispEdges"/>
<g clip-path="url(#clip0_354_547)">
<path d="M110.625 120.639C109.155 121.527 107.995 122.751 107.064 124.125H114.185C113.255 122.751 112.094 121.527 110.625 120.639Z" fill="#212121"/>
<path d="M110.625 116.361C112.094 115.474 113.255 114.249 114.185 112.875H107.064C107.995 114.249 109.155 115.474 110.625 116.361Z" fill="#212121"/>
<path d="M116.25 106.366V105.375H105V106.366C105 107.314 105.141 108.233 105.355 109.125H115.895C116.109 108.233 116.25 107.314 116.25 106.366Z" fill="#212121"/>
<path d="M116.25 130.634C116.25 129.686 116.109 128.767 115.895 127.875H105.355C105.141 128.767 105 129.686 105 130.634V131.625H116.25L116.25 130.634Z" fill="#212121"/>
<path d="M91.8749 97.875H93.75V133.5C93.75 142.806 101.32 150.5 110.625 150.5C119.93 150.5 127.5 142.806 127.5 133.5V97.875H129.375C130.411 97.875 131.25 97.0364 131.25 96V88.375C131.25 87.3387 130.411 86.5 129.375 86.5H91.8749C90.8386 86.5 90 87.3387 90 88.375V96C90 97.0364 90.8386 97.875 91.8749 97.875ZM101.25 130.634C101.25 126.215 103.266 121.558 107.192 118.5C103.312 115.478 101.25 110.862 101.25 106.366V99.75C101.25 98.7136 102.089 97.875 103.125 97.875C104.161 97.875 105 98.7136 105 99.75V101.625H116.25V99.75C116.25 98.7136 117.089 97.875 118.125 97.875C119.161 97.875 120 98.7136 120 99.75V106.366C120 110.785 117.985 115.441 114.058 118.5C117.968 121.546 120 126.194 120 130.634V137.25C120 138.286 119.161 139.125 118.125 139.125C117.089 139.125 116.25 138.286 116.25 137.25V135.375H105V137.25C105 138.286 104.161 139.125 103.125 139.125C102.089 139.125 101.25 138.286 101.25 137.25V130.634Z" fill="#212121"/>
<path d="M146.25 144.75V124.125H135V144.75C135 147.852 137.523 150.5 140.625 150.5C143.727 150.5 146.25 147.852 146.25 144.75Z" fill="#212121"/>
<path d="M150 111C150 109.964 149.161 109.125 148.125 109.125H133.125C132.089 109.125 131.25 109.964 131.25 111V114.75C131.25 115.786 132.089 116.625 133.125 116.625H135V120.375H146.25V116.625H148.125C149.161 116.625 150 115.786 150 114.75V111Z" fill="#212121"/>
<path d="M79.0711 71.4289L72 78.5L159.681 166.181L166.752 159.11L79.0711 71.4289Z" fill="white"/>
<path d="M75.4141 75.0857L163.095 162.767" stroke="#C70707" stroke-width="4"/>
<path d="M120 180.5C154.242 180.5 182 152.742 182 118.5C182 84.2583 154.242 56.5 120 56.5C85.7583 56.5 58 84.2583 58 118.5C58 152.742 85.7583 180.5 120 180.5Z" stroke="#C70707" stroke-width="4"/>
</g>
</g>
<defs>
<filter id="filter0_d_354_547" x="0" y="0.5" width="240" height="240" filterUnits="userSpaceOnUse" color-interpolation-filters="sRGB">
<feFlood flood-opacity="0" result="BackgroundImageFix"/>
<feColorMatrix in="SourceAlpha" type="matrix" values="0 0 0 0 0 0 0 0 0 0 0 0 0 0 0 0 0 0 127 0" result="hardAlpha"/>
<feOffset dy="2"/>
<feGaussianBlur stdDeviation="15"/>
<feComposite in2="hardAlpha" operator="out"/>
<feColorMatrix type="matrix" values="0 0 0 0 0 0 0 0 0 0 0 0 0 0 0 0 0 0 0.08 0"/>
<feBlend mode="normal" in2="BackgroundImageFix" result="effect1_dropShadow_354_547"/>
<feBlend mode="normal" in="SourceGraphic" in2="effect1_dropShadow_354_547" result="shape"/>
</filter>
<clipPath id="clip0_354_547">
<rect width="128" height="128" fill="white" transform="translate(56 54.5)"/>
</clipPath>
</defs>
</svg>
