<svg width="240" height="240" viewBox="0 0 240 240" fill="none" xmlns="http://www.w3.org/2000/svg">
<g filter="url(#filter0_d_354_482)">
<rect x="30" y="28" width="180" height="180" rx="90" fill="white" shape-rendering="crispEdges"/>
<g clip-path="url(#clip0_354_482)">
<path d="M108.794 126.183C109.5 126.622 110.285 126.917 111.106 127.051C111.926 127.186 112.764 127.158 113.574 126.969C114.383 126.779 115.147 126.432 115.822 125.947C116.497 125.463 117.07 124.85 117.508 124.143C117.557 124.065 117.621 123.998 117.697 123.946C117.772 123.894 117.858 123.858 117.949 123.841L118.012 123.829C118.173 123.798 118.34 123.827 118.48 123.912C119.913 124.768 121.625 125.024 123.245 124.624C124.865 124.224 126.262 123.2 127.131 121.775C127.999 120.35 128.27 118.64 127.884 117.017C127.499 115.393 126.487 113.988 125.07 113.106L113.751 106.083L106.756 117.467C106.317 118.173 106.022 118.959 105.887 119.779C105.752 120.599 105.78 121.438 105.969 122.248C106.158 123.057 106.505 123.821 106.99 124.496C107.474 125.172 108.087 125.745 108.794 126.183Z" fill="black"/>
<path d="M117.834 130.17C118.781 129.743 119.803 129.507 120.841 129.475L118.567 126.292L117.834 130.17Z" fill="black"/>
<path d="M97.5699 98.9929L97.3809 103.083L99.5548 102.574L97.5699 98.9929Z" fill="black"/>
<path d="M101.602 147.443C101.701 147.866 101.883 148.266 102.136 148.62C102.39 148.973 102.711 149.273 103.08 149.502C103.45 149.731 103.861 149.886 104.29 149.956C104.719 150.027 105.158 150.012 105.581 149.913L111.29 148.577C111.326 148.565 111.362 148.557 111.399 148.551L140.539 141.73C141.394 141.529 142.135 140.998 142.598 140.252C143.061 139.505 143.209 138.606 143.009 137.75L131.493 88.5578C131.323 87.8315 130.912 87.184 130.328 86.7199C129.744 86.2557 129.021 86.0021 128.275 86C128.019 86.0002 127.763 86.0298 127.514 86.0884L92.5562 94.271C91.7015 94.4721 90.9615 95.0041 90.4985 95.7501C90.0355 96.4962 89.8873 97.3953 90.0864 98.2504L101.602 147.443ZM105.622 116.766L112.967 104.814C113.013 104.739 113.073 104.674 113.144 104.622C113.215 104.571 113.296 104.534 113.381 104.514C113.467 104.493 113.556 104.49 113.642 104.505C113.729 104.519 113.812 104.55 113.887 104.596L125.774 111.974C127.32 112.934 128.473 114.413 129.029 116.146C129.584 117.879 129.504 119.753 128.804 121.432C128.103 123.112 126.828 124.487 125.206 125.313C123.585 126.138 121.722 126.36 119.952 125.937L122.736 129.835C122.813 129.941 122.856 130.068 122.86 130.199C122.865 130.33 122.831 130.459 122.762 130.571C122.694 130.683 122.594 130.772 122.475 130.827C122.356 130.882 122.224 130.901 122.094 130.881C120.409 130.623 118.689 131.025 117.294 132.005C117.185 132.081 117.057 132.123 116.924 132.125C116.791 132.128 116.661 132.091 116.55 132.019C116.438 131.947 116.351 131.843 116.299 131.721C116.247 131.599 116.232 131.464 116.257 131.334L117.153 126.598C116.213 127.413 115.089 127.986 113.878 128.267C113.301 128.403 112.711 128.471 112.118 128.472C110.753 128.469 109.414 128.102 108.239 127.408C107.064 126.714 106.095 125.72 105.433 124.526C104.771 123.333 104.439 121.985 104.473 120.621C104.506 119.256 104.903 117.925 105.622 116.766ZM95.5958 106.097L96.1676 97.6736C96.1923 97.2726 96.6136 96.9895 97.0759 96.8812C97.5507 96.7702 98.0539 96.8367 98.254 97.1853L102.505 104.479C102.528 104.517 102.546 104.557 102.559 104.599C102.65 104.986 102.13 105.411 101.693 105.513C101.418 105.577 101.185 105.54 101.067 105.317L100.203 103.766L97.342 104.436L97.2562 106.209C97.2494 106.462 97.0575 106.599 96.7825 106.663C96.3452 106.765 95.6937 106.628 95.6001 106.228C95.5948 106.184 95.5934 106.141 95.5958 106.097Z" fill="black"/>
<path d="M143.731 140.955C143.41 141.474 142.99 141.924 142.495 142.281C141.999 142.636 141.438 142.891 140.843 143.027L117.427 148.509L144.641 148.363C145.752 148.356 146.814 147.908 147.594 147.119C148.375 146.33 148.811 145.264 148.806 144.153L148.545 95.3831C148.539 94.2766 148.096 93.2173 147.311 92.4369C146.526 91.6565 145.464 91.2183 144.358 91.218H144.335L133.5 91.276L144.308 137.446C144.448 138.04 144.47 138.656 144.371 139.258C144.272 139.861 144.055 140.437 143.731 140.955Z" fill="black"/>
<path d="M79.0711 70.9289L72 78L159.681 165.681L166.752 158.61L79.0711 70.9289Z" fill="white"/>
<path d="M75.4141 74.5857L163.095 162.267" stroke="#C70707" stroke-width="4"/>
<path d="M120 180C154.242 180 182 152.242 182 118C182 83.7583 154.242 56 120 56C85.7583 56 58 83.7583 58 118C58 152.242 85.7583 180 120 180Z" stroke="#C70707" stroke-width="4"/>
</g>
</g>
<defs>
<filter id="filter0_d_354_482" x="0" y="0" width="240" height="240" filterUnits="userSpaceOnUse" color-interpolation-filters="sRGB">
<feFlood flood-opacity="0" result="BackgroundImageFix"/>
<feColorMatrix in="SourceAlpha" type="matrix" values="0 0 0 0 0 0 0 0 0 0 0 0 0 0 0 0 0 0 127 0" result="hardAlpha"/>
<feOffset dy="2"/>
<feGaussianBlur stdDeviation="15"/>
<feComposite in2="hardAlpha" operator="out"/>
<feColorMatrix type="matrix" values="0 0 0 0 0 0 0 0 0 0 0 0 0 0 0 0 0 0 0.08 0"/>
<feBlend mode="normal" in2="BackgroundImageFix" result="effect1_dropShadow_354_482"/>
<feBlend mode="normal" in="SourceGraphic" in2="effect1_dropShadow_354_482" result="shape"/>
</filter>
<clipPath id="clip0_354_482">
<rect width="128" height="128" fill="white" transform="translate(56 54)"/>
</clipPath>
</defs>
</svg>
