<svg width="240" height="240" viewBox="0 0 240 240" fill="none" xmlns="http://www.w3.org/2000/svg">
<g filter="url(#filter0_d_354_494)">
<rect x="30" y="28" width="180" height="180" rx="90" fill="white" shape-rendering="crispEdges"/>
<g clip-path="url(#clip0_354_494)">
<path d="M126.8 108.4C129.6 104.8 131.2 99.9996 131.2 95.1998V82H140.8V95.1998C140.8 99.9999 142.4 104.4 145.2 108.4C148 112.4 149.599 116.8 149.599 121.6V149.999C149.599 152.4 147.599 153.999 145.599 153.999H127.6C125.2 153.999 123.6 152 123.6 149.999V121.6C122.8 116.8 124 112 126.8 108.4Z" fill="#212121"/>
<path d="M112.8 112.4C114.8 115.6 116.4 119.6 116.4 123.999C116.4 133.199 110.4 140.799 103.2 140.799C95.9999 140.799 90 133.199 90 123.999C90 119.6 91.2001 115.599 93.6 112.4H112.8Z" fill="#212121"/>
<path d="M105.2 134.4H101.2V152.4H105.2V134.4Z" fill="#212121"/>
<path d="M94 154H112.4C111.6 151.6 107.6 150 103.2 150C98.8 150 95.2 151.6 94 154Z" fill="#212121"/>
<path d="M79.0711 70.9289L72 78L159.681 165.681L166.752 158.61L79.0711 70.9289Z" fill="white"/>
<path d="M75.4141 74.5857L163.095 162.267" stroke="#C70707" stroke-width="4"/>
<path d="M120 180C154.242 180 182 152.242 182 118C182 83.7583 154.242 56 120 56C85.7583 56 58 83.7583 58 118C58 152.242 85.7583 180 120 180Z" stroke="#C70707" stroke-width="4"/>
</g>
</g>
<defs>
<filter id="filter0_d_354_494" x="0" y="0" width="240" height="240" filterUnits="userSpaceOnUse" color-interpolation-filters="sRGB">
<feFlood flood-opacity="0" result="BackgroundImageFix"/>
<feColorMatrix in="SourceAlpha" type="matrix" values="0 0 0 0 0 0 0 0 0 0 0 0 0 0 0 0 0 0 127 0" result="hardAlpha"/>
<feOffset dy="2"/>
<feGaussianBlur stdDeviation="15"/>
<feComposite in2="hardAlpha" operator="out"/>
<feColorMatrix type="matrix" values="0 0 0 0 0 0 0 0 0 0 0 0 0 0 0 0 0 0 0.08 0"/>
<feBlend mode="normal" in2="BackgroundImageFix" result="effect1_dropShadow_354_494"/>
<feBlend mode="normal" in="SourceGraphic" in2="effect1_dropShadow_354_494" result="shape"/>
</filter>
<clipPath id="clip0_354_494">
<rect width="128" height="128" fill="white" transform="translate(56 54)"/>
</clipPath>
</defs>
</svg>
