<svg width="90" height="90" viewBox="0 0 90 90" fill="none" xmlns="http://www.w3.org/2000/svg">
<rect width="90" height="90" rx="45" fill="#1BAD4E"/>
<g clip-path="url(#clip0_324_82)">
<path d="M31.4976 26.8159C27.6211 27.1882 24.5566 30.2558 24.1812 34.1292H40.3767C39.9464 29.6576 35.9692 26.3824 31.4976 26.8159Z" fill="white"/>
<path d="M32.2791 44.1834C36.7721 44.1834 40.4166 40.542 40.4166 36.046V35.698H24.1416V36.046C24.1416 40.539 27.783 44.1834 32.2791 44.1834Z" fill="white"/>
<path d="M37.5047 44.5437H36.9583C34.0464 46.1553 30.5088 46.1553 27.5969 44.5437H27.0505C23.1557 44.5468 19.9996 47.7028 19.9966 51.5976V54.7323C19.9966 55.1658 20.3476 55.5168 20.781 55.5168H43.7741C44.2076 55.5168 44.5586 55.1658 44.5586 54.7323V51.5976C44.5555 47.7028 41.3994 44.5468 37.5047 44.5437ZM33.0635 51.9242C33.0635 52.3576 32.7125 52.7086 32.2791 52.7086C31.8457 52.7086 31.4947 52.3576 31.4947 51.9242V48.0997C31.4947 47.6662 31.8457 47.3152 32.2791 47.3152C32.7125 47.3152 33.0635 47.6662 33.0635 48.0997V51.9242Z" fill="white"/>
<path d="M56.939 26.8158C53.0625 27.1913 49.998 30.2558 49.6226 34.1322H65.8181C65.3878 29.6606 61.4106 26.3855 56.939 26.8158Z" fill="white"/>
<path d="M57.7205 44.1834C62.2135 44.1834 65.858 40.542 65.858 36.046V35.698H49.583V36.046C49.583 40.539 53.2244 44.1834 57.7205 44.1834Z" fill="white"/>
<path d="M62.9461 44.5437H62.3997C59.4878 46.1553 55.9502 46.1553 53.0383 44.5437H52.4919C48.5971 44.5468 45.441 47.7028 45.438 51.5976V54.7323C45.438 55.1658 45.789 55.5168 46.2224 55.5168H69.2125C69.6459 55.5168 69.9969 55.1658 69.9969 54.7323V51.5976C69.9939 47.7028 66.8378 44.5468 62.943 44.5437H62.9461ZM58.505 51.9242C58.505 52.3576 58.1539 52.7086 57.7205 52.7086C57.2871 52.7086 56.9361 52.3576 56.9361 51.9242V48.0997C56.9361 47.6662 57.2871 47.3152 57.7205 47.3152C58.1539 47.3152 58.505 47.6662 58.505 48.0997V51.9242Z" fill="white"/>
<path d="M53.6518 41.8392H36.1895C36.1895 41.8117 36.1895 41.7812 36.1925 41.7537V41.7446C36.2108 41.3722 36.2536 41.0059 36.3176 40.6457C36.3176 40.6396 36.3176 40.6335 36.3176 40.6274C37.0563 36.5495 40.6245 33.4575 44.916 33.4575C49.2076 33.4575 52.7391 36.5159 53.5022 40.5633C53.5022 40.5694 53.5022 40.5755 53.5022 40.5786C53.5755 40.9693 53.6212 41.3722 53.6395 41.7812C53.6395 41.8026 53.6395 41.8209 53.6395 41.8422L53.6518 41.8392Z" fill="white"/>
<path d="M44.1382 32.9428C40.2617 33.3182 37.1972 36.3827 36.8218 40.2592H53.0174C52.587 35.7875 48.6098 32.5124 44.1382 32.9428Z" fill="white"/>
<path d="M53.6491 40.7782L53.5941 40.2074C53.5728 39.9937 53.5453 39.7862 53.5117 39.5786C53.5117 39.5755 53.5117 39.5694 53.5117 39.5633C53.1607 37.5061 52.0924 35.6625 50.4655 34.3195C48.6707 32.8391 46.4059 32.1493 44.0892 32.3721C40.1426 32.7506 36.9651 35.7632 36.3272 39.6274C36.3272 39.6335 36.3272 39.6396 36.3272 39.6458C36.2967 39.8319 36.2722 40.0181 36.2539 40.2074L36.202 40.7446V40.7537L36.1929 40.8392H53.6613L53.6552 40.7782H53.6491ZM37.4871 39.6824C37.7862 38.0372 38.6195 36.5782 39.8007 35.4915C40.9789 34.4019 42.5051 33.6815 44.196 33.5198C46.2045 33.3275 48.1702 33.9257 49.7299 35.2107C51.1218 36.3584 52.0405 37.9273 52.3579 39.6824H37.4871Z" fill="#1BAD4E"/>
<path d="M44.9192 51.3136C49.4122 51.3136 53.0567 47.6722 53.0567 43.1761V42.8281H36.7817V43.1761C36.7817 47.6691 40.4232 51.3136 44.9192 51.3136Z" fill="white"/>
<path d="M36.2051 42.2512V43.1761C36.2051 45.505 37.1116 47.6935 38.7568 49.3387C40.402 50.9869 42.5905 51.8935 44.9194 51.8935C47.2484 51.8935 49.4369 50.987 51.0821 49.3418C52.7273 47.6966 53.6338 45.508 53.6338 43.1761V42.2512H36.2051ZM44.9194 50.7367C42.8988 50.7367 41.0003 49.9492 39.5748 48.5207C38.1494 47.0922 37.4199 45.3371 37.3619 43.405H52.4739C52.3518 47.4676 49.0095 50.7336 44.9194 50.7336V50.7367Z" fill="#1BAD4E"/>
<path d="M53.6367 42.819V42.2513H36.205V42.7977C36.1897 42.5993 36.1836 42.3948 36.1836 42.1933C36.1836 42.0743 36.1836 41.9583 36.1897 41.8423H53.652C53.6551 41.9583 53.6581 42.0773 53.6581 42.1933C53.6581 42.4039 53.652 42.6145 53.6337 42.819H53.6367Z" fill="white"/>
<path d="M50.1448 51.6738H49.5984C46.6865 53.2855 43.1489 53.2855 40.237 51.6738H39.6906C35.7959 51.6769 32.6398 54.833 32.6367 58.7277V61.8625C32.6367 62.2959 32.9877 62.6469 33.4212 62.6469H56.4173C56.8507 62.6469 57.2018 62.2959 57.2018 61.8625V58.7277C57.1987 54.833 54.0426 51.6769 50.1479 51.6738H50.1448ZM45.7037 59.0543C45.7037 59.4878 45.3527 59.8388 44.9192 59.8388C44.4858 59.8388 44.1348 59.4878 44.1348 59.0543V55.2298C44.1348 54.7963 44.4858 54.4453 44.9192 54.4453C45.3527 54.4453 45.7037 54.7963 45.7037 55.2298V59.0543Z" fill="white"/>
<path d="M56.4174 63.2238H33.4243C32.6735 63.2238 32.063 62.6133 32.063 61.8624V58.7277C32.0691 54.5247 35.4907 51.1 39.6938 51.0969H40.3897L40.521 51.1702C43.2772 52.6933 46.5676 52.6933 49.3208 51.1702L49.452 51.0969H50.148C54.351 51.103 57.7757 54.5247 57.7788 58.7277V61.8624C57.7788 62.6133 57.1683 63.2238 56.4174 63.2238ZM39.6968 52.2507C36.1287 52.2538 33.2259 55.1596 33.2198 58.7277V61.8624C33.2198 61.9754 33.3114 62.067 33.4243 62.067H56.4174C56.5304 62.067 56.6219 61.9754 56.6219 61.8624V58.7277C56.6189 55.1626 53.7131 52.2568 50.1449 52.2507H49.7481C46.7141 53.8715 43.1276 53.8715 40.0936 52.2507H39.6968ZM44.9224 60.4156C44.1715 60.4156 43.5611 59.8052 43.5611 59.0543V55.2298C43.5611 54.4789 44.1715 53.8684 44.9224 53.8684C45.6733 53.8684 46.2837 54.4789 46.2837 55.2298V59.0543C46.2837 59.8052 45.6733 60.4156 44.9224 60.4156ZM44.9224 55.0222C44.8095 55.0222 44.7179 55.1138 44.7179 55.2267V59.0513C44.7179 59.1642 44.8095 59.2558 44.9224 59.2558C45.0353 59.2558 45.1269 59.1642 45.1269 59.0513V55.2267C45.1269 55.1138 45.0353 55.0222 44.9224 55.0222Z" fill="#1BAD4E"/>
</g>
<defs>
<clipPath id="clip0_324_82">
<rect width="50" height="36.4477" fill="white" transform="translate(20 26.7761)"/>
</clipPath>
</defs>
</svg>
