<svg width="241" height="241" viewBox="0 0 241 241" fill="none" xmlns="http://www.w3.org/2000/svg">
<g filter="url(#filter0_d_354_701)">
<rect x="30.5" y="28.5" width="180" height="180" rx="90" fill="white" shape-rendering="crispEdges"/>
<g clip-path="url(#clip0_354_701)">
<path d="M122.164 96.4721C126.909 95.478 132.647 95.9144 137.185 97.4443C146.002 100.418 153.865 108.629 153.595 118.457C153.497 122.011 152.071 125.585 149.47 127.987C149.039 128.386 148.833 128.968 148.876 129.554C149.089 132.461 150.073 135.546 149.555 138.358C149.171 140.447 148.014 142.288 146.794 144.044C146.498 144.469 146.013 144.722 145.495 144.722H141.175C140.009 144.722 139.244 143.502 139.753 142.453C140.802 140.291 141.965 136.966 140.982 134.206C140.222 132.075 137.739 133.638 136.42 134.222C132.742 135.849 128.515 135.5 124.668 135.07C122.914 134.874 118.968 133.23 118.725 136.198C118.497 138.999 117.245 141.394 115.909 143.887C115.634 144.4 115.099 144.721 114.516 144.721H109.998C108.887 144.721 108.12 143.606 108.524 142.57C109.568 139.897 111.033 135.25 110.311 131.657C110.214 131.171 109.948 130.736 109.556 130.433C109.556 130.433 102.561 125.021 102.555 125.016C100.785 123.648 98.8683 124.461 96.8826 124.594C94.4439 124.757 92.243 123.959 90.5344 122.16C90.5344 122.16 86.4458 118.656 83.2467 117.113C82.1798 116.598 81.5 115.522 81.5 114.337V112.36C81.5 111.064 82.5142 109.998 83.809 109.927C83.8426 109.925 83.8765 109.924 83.9105 109.922C86.8087 109.752 89.5611 108.541 91.6305 106.505C92.6155 105.535 94.0501 104.354 95.7456 103.645C96.4592 103.346 96.9403 102.667 97.0042 101.896L97.5503 95.2987C97.6044 94.6464 98.3404 94.294 98.8812 94.6629C100.606 95.8397 103.607 98.2598 104.061 101.107C104.21 102.036 105.12 102.639 106.041 102.443C108.74 101.868 111.225 100.648 113.69 99.4479C116.409 98.125 119.248 97.0847 122.164 96.4721Z" fill="#212121"/>
<path d="M147.525 106.374C146.737 106.374 146.007 105.866 145.761 105.073C145.459 104.099 146.004 103.064 146.979 102.761C147.865 102.486 148.657 102.055 149.319 101.503C149.173 101.405 149.027 101.299 148.88 101.183C147.243 99.8954 146.293 98.1187 146.272 96.3091C146.245 93.9205 147.962 91.8227 150.18 91.5333C151.999 91.2968 153.902 92.3393 154.803 94.0714C155.652 95.7051 155.419 97.2027 155.091 98.4676C155.627 98.3433 156.094 98.1506 156.451 97.8457C157.226 97.1819 158.392 97.2726 159.055 98.0472C159.719 98.8223 159.63 99.9886 158.854 100.652C157.302 101.982 155.379 102.274 153.485 102.371C152.237 104.193 150.347 105.585 148.073 106.29C147.89 106.347 147.706 106.374 147.525 106.374ZM150.712 95.1941C150.694 95.1941 150.676 95.1952 150.659 95.1974C150.349 95.2379 149.961 95.7496 149.968 96.2676C149.975 96.9334 150.434 97.7042 151.165 98.2792C151.206 98.3115 151.247 98.3419 151.286 98.3706C151.312 98.2734 151.34 98.1769 151.367 98.0807C151.712 96.8503 151.815 96.333 151.525 95.7767C151.356 95.4526 150.989 95.1941 150.712 95.1941Z" fill="#212121"/>
<path d="M79.5711 71.4289L72.5 78.5L160.181 166.181L167.252 159.11L79.5711 71.4289Z" fill="white"/>
<path d="M75.9141 75.0857L163.595 162.767" stroke="#C70707" stroke-width="4"/>
<path d="M120.5 180.5C154.742 180.5 182.5 152.742 182.5 118.5C182.5 84.2583 154.742 56.5 120.5 56.5C86.2583 56.5 58.5 84.2583 58.5 118.5C58.5 152.742 86.2583 180.5 120.5 180.5Z" stroke="#C70707" stroke-width="4"/>
</g>
</g>
<defs>
<filter id="filter0_d_354_701" x="0.5" y="0.5" width="240" height="240" filterUnits="userSpaceOnUse" color-interpolation-filters="sRGB">
<feFlood flood-opacity="0" result="BackgroundImageFix"/>
<feColorMatrix in="SourceAlpha" type="matrix" values="0 0 0 0 0 0 0 0 0 0 0 0 0 0 0 0 0 0 127 0" result="hardAlpha"/>
<feOffset dy="2"/>
<feGaussianBlur stdDeviation="15"/>
<feComposite in2="hardAlpha" operator="out"/>
<feColorMatrix type="matrix" values="0 0 0 0 0 0 0 0 0 0 0 0 0 0 0 0 0 0 0.08 0"/>
<feBlend mode="normal" in2="BackgroundImageFix" result="effect1_dropShadow_354_701"/>
<feBlend mode="normal" in="SourceGraphic" in2="effect1_dropShadow_354_701" result="shape"/>
</filter>
<clipPath id="clip0_354_701">
<rect width="128" height="128" fill="white" transform="translate(56.5 54.5)"/>
</clipPath>
</defs>
</svg>
