<svg width="90" height="90" viewBox="0 0 90 90" fill="none" xmlns="http://www.w3.org/2000/svg">
<rect width="90" height="90" rx="45" fill="#1BAD4E"/>
<path d="M37.2632 24.9511C37.5832 24.9513 37.8962 24.8566 38.1624 24.679C38.4287 24.5014 38.6363 24.2488 38.7589 23.9531C38.8816 23.6575 38.9138 23.3322 38.8515 23.0182C38.7892 22.7043 38.6352 22.4159 38.409 22.1894C38.1828 21.963 37.8945 21.8088 37.5806 21.7463C37.2667 21.6837 36.9413 21.7157 36.6456 21.8381C36.3499 21.9606 36.0971 22.1679 35.9193 22.434C35.7414 22.7001 35.6465 23.013 35.6465 23.3331C35.6468 23.7619 35.8172 24.173 36.1203 24.4763C36.4234 24.7797 36.8344 24.9504 37.2632 24.9511Z" fill="white"/>
<path d="M37.3985 29.4764L40.2172 25.7058C40.7612 24.9967 41.0331 24.1161 40.9835 23.2238C40.8726 21.5185 39.5014 19.7559 37.3985 19.7559C35.2956 19.7559 33.9247 21.5185 33.8138 23.2227C33.7719 24.1168 34.0444 24.9973 34.5839 25.7115L37.3985 29.4764ZM37.2632 20.6408C37.7957 20.6405 38.3163 20.7982 38.7592 21.0939C39.2021 21.3896 39.5474 21.8099 39.7514 22.3019C39.9553 22.7938 40.0088 23.3351 39.9051 23.8574C39.8014 24.3798 39.5451 24.8596 39.1686 25.2362C38.7922 25.6129 38.3124 25.8694 37.7902 25.9734C37.2679 26.0774 36.7265 26.0241 36.2345 25.8204C35.7425 25.6167 35.322 25.2716 35.0261 24.8288C34.7302 24.3861 34.5723 23.8655 34.5723 23.333C34.5729 22.6194 34.8566 21.9352 35.361 21.4305C35.8655 20.9258 36.5496 20.6418 37.2632 20.6408Z" fill="white"/>
<path d="M56.4927 33.8829C56.7991 34.2336 57.2241 34.459 57.6863 34.5157L58.0003 34.5545C58.5313 34.6202 59.0319 34.8387 59.4411 35.1834C59.8504 35.5281 60.1509 35.9842 60.306 36.4963C60.455 36.9913 60.4593 37.5185 60.3183 38.0158C60.1773 38.5131 59.8969 38.9596 59.5103 39.3026L56.4012 42.0519C56.2114 42.2198 56.0594 42.4262 55.9553 42.6572C55.8512 42.8883 55.7974 43.1389 55.7974 43.3923V44.1218C55.7968 44.3566 55.8554 44.5877 55.9676 44.7939C56.0798 45.0001 56.2421 45.1748 56.4395 45.3018C56.7698 45.5139 57.0477 45.7981 57.2523 46.133C57.457 46.4679 57.5831 46.8448 57.6212 47.2354L57.694 47.9639C57.7227 48.2616 57.8614 48.5379 58.083 48.7388C58.3046 48.9396 58.5932 49.0506 58.8923 49.0499H60.7123C61.2367 49.0497 61.7496 48.8967 62.1885 48.6098C62.6274 48.3229 62.9732 47.9143 63.1837 47.434L63.293 47.1847C63.488 46.7351 63.8056 46.3496 64.2096 46.0722C64.6135 45.7948 65.0875 45.6368 65.5771 45.6164L66.0046 45.5969C66.0525 45.5948 66.1 45.5913 66.1474 45.5862L67.1847 45.4818C66.9738 43.4563 66.5874 41.4529 66.0297 39.4943L65.4202 40.3093C65.3702 40.3762 65.3053 40.4304 65.2306 40.4678C65.156 40.5052 65.0736 40.5247 64.9901 40.5247C64.9066 40.5247 64.8242 40.5052 64.7496 40.4678C64.6749 40.4304 64.61 40.3762 64.56 40.3093L61.9481 36.8168C61.3786 36.0583 61.093 35.1242 61.1413 34.1769C61.1822 33.5379 61.3763 32.918 61.7071 32.3697C60.6033 31.2837 59.3979 30.3061 58.1073 29.4504L56.3479 32.4672C56.2224 32.6891 56.1689 32.9445 56.1948 33.1981C56.2208 33.4517 56.3249 33.691 56.4927 33.8829Z" fill="white"/>
<path d="M64.9906 39.0917L67.1723 36.1743C67.5946 35.6247 67.8058 34.9419 67.7676 34.2499C67.6817 32.9272 66.6194 31.5605 64.9906 31.5605C63.3617 31.5605 62.2995 32.9272 62.2136 34.2483C62.1817 34.9423 62.3937 35.6256 62.8128 36.1796L64.9906 39.0917ZM64.8817 32.0609C65.3306 32.0608 65.7693 32.1938 66.1425 32.4431C66.5158 32.6924 66.8067 33.0468 66.9785 33.4614C67.1503 33.8761 67.1953 34.3323 67.1078 34.7725C67.0203 35.2127 66.8042 35.6171 66.4869 35.9345C66.1695 36.2519 65.7652 36.4681 65.325 36.5556C64.8848 36.6432 64.4286 36.5983 64.0139 36.4266C63.5992 36.2548 63.2448 35.964 62.9954 35.5908C62.7461 35.2177 62.613 34.7789 62.613 34.3301C62.6136 33.7286 62.8529 33.1518 63.2782 32.7265C63.7035 32.3011 64.2802 32.0618 64.8817 32.061V32.0609Z" fill="white"/>
<path d="M66.2552 46.6561C66.1881 46.6627 66.1208 46.6676 66.0533 46.6708L65.6261 46.6901C65.3369 46.7023 65.057 46.7957 64.8184 46.9596C64.5798 47.1234 64.3922 47.3512 64.277 47.6167L64.1677 47.8661C63.8733 48.5374 63.3899 49.1085 62.7763 49.5096C62.1627 49.9107 61.4456 50.1244 60.7126 50.1246H58.8925C58.3268 50.1261 57.7809 49.9164 57.3615 49.5366C56.9422 49.1568 56.6797 48.6342 56.6253 48.0711L56.5526 47.3428C56.5302 47.1128 56.456 46.8909 56.3356 46.6936C56.2152 46.4964 56.0516 46.3291 55.8572 46.2041C55.5087 45.98 55.2222 45.6718 55.0241 45.3079C54.826 44.944 54.7227 44.5361 54.7236 44.1218V43.3923C54.7237 42.9866 54.8099 42.5856 54.9766 42.2158C55.1432 41.846 55.3866 41.5158 55.6904 41.247L58.7995 38.4979C59.0323 38.2913 59.2012 38.0223 59.2861 37.7228C59.371 37.4233 59.3684 37.1057 59.2786 36.8076C59.1838 36.4946 59.0003 36.2158 58.7501 36.0051C58.5 35.7944 58.1941 35.6608 57.8695 35.6206L57.5557 35.5818C56.831 35.4929 56.1647 35.1396 55.6845 34.5896C55.3695 34.2288 55.1745 33.7789 55.1268 33.3024C55.079 32.8258 55.1808 32.3462 55.418 31.9301L57.2019 28.8724C56.2459 28.2864 55.2545 27.7602 54.2333 27.2968C51.0751 25.8675 47.8028 25.1121 44.7695 25.1121C44.4809 25.1121 44.1651 25.1212 43.8313 25.1386L46.2168 28.5795C46.6738 29.2358 46.9094 30.0208 46.8893 30.8203C46.8692 31.6198 46.5944 32.392 46.1049 33.0244L45.3403 34.0174C45.0276 34.4219 44.6148 34.7379 44.1427 34.9341C43.6705 35.1303 43.1554 35.2 42.6481 35.1362L41.7809 35.0254C41.3993 34.9764 41.0117 35.0408 40.6663 35.2104C40.321 35.38 40.0331 35.6474 39.8386 35.9793C39.546 36.4782 39.1133 36.8802 38.5942 37.1353C38.0751 37.3904 37.4925 37.4873 36.9188 37.414L34.9162 37.1595C34.5341 37.11 34.1457 37.1679 33.7947 37.3268C33.4437 37.4856 33.1438 37.7392 32.9289 38.059C32.7425 38.3343 32.6405 38.658 32.6354 38.9905C32.6302 39.3229 32.7222 39.6496 32.9 39.9306L34.223 42.0216C34.427 42.3419 34.7444 42.5736 35.1117 42.6703C35.479 42.7671 35.8692 42.7218 36.2046 42.5435L37.5667 41.8131C38.464 41.3318 39.7746 41.2778 40.8399 41.6259C41.26 39.4105 43.1691 37.7499 45.42 37.7499C47.8683 37.7499 49.9138 39.7139 50.0767 42.2214C50.1436 43.3697 49.7965 44.504 49.0985 45.4182L48.2581 46.5424L48.7513 47.2192C48.8238 47.3201 48.899 47.4164 48.9769 47.508L50.6311 49.4564C50.8084 49.6653 50.9415 49.9079 51.0222 50.1697C51.1029 50.4315 51.1296 50.7069 51.1007 50.9793C51.0718 51.2517 50.9879 51.5154 50.8541 51.7544C50.7202 51.9934 50.5393 52.2027 50.3221 52.3697L47.8144 54.2976C47.3418 54.6597 46.994 55.1604 46.8198 55.7298L45.9845 58.4424C45.873 58.8054 45.6905 59.1427 45.4474 59.4344L44.6344 60.4133C44.1785 60.9611 43.8963 61.6325 43.8238 62.3415C43.7786 62.7815 43.6157 63.2013 43.3522 63.5566C43.0888 63.912 42.7345 64.1898 42.3266 64.361C42.0732 64.4673 41.799 64.5149 41.5246 64.5001C41.2502 64.4854 40.9828 64.4087 40.7422 64.2759C40.5017 64.1431 40.2943 63.9575 40.1357 63.7331C39.977 63.5088 39.8712 63.2514 39.8262 62.9803L39.0604 58.3806C38.9965 57.9988 38.8407 57.6382 38.6063 57.33L35.8007 53.6474C35.4573 53.1973 35.2034 52.6856 35.0527 52.1398L34.1266 48.7955C34.0181 48.4067 33.8108 48.0527 33.5249 47.7677C33.2391 47.4828 32.8844 47.2766 32.4953 47.1692L32.294 47.1143C31.6999 46.9516 31.1547 46.6458 30.706 46.2238L28.9787 44.5965C28.6204 44.259 28.313 43.8713 28.0661 43.4455C27.7904 42.9699 27.3743 42.5913 26.8749 42.3616C26.3755 42.1318 25.8172 42.0623 25.2767 42.1624L22.7588 42.9815C22.416 44.5239 22.2375 46.0983 22.2266 47.6783C22.2266 60.1211 32.3393 70.2441 44.7694 70.2441C57.1995 70.2441 67.3121 60.1211 67.3121 47.6783C67.3121 47.3283 67.2988 46.9504 67.2741 46.5535L66.2552 46.6561Z" fill="white"/>
<path d="M64.8815 35.5254C65.1179 35.5255 65.349 35.4555 65.5455 35.3242C65.7421 35.193 65.8953 35.0064 65.9858 34.788C66.0764 34.5697 66.1001 34.3294 66.054 34.0976C66.008 33.8658 65.8942 33.6528 65.7271 33.4856C65.56 33.3185 65.3471 33.2046 65.1153 33.1585C64.8834 33.1123 64.6432 33.136 64.4248 33.2264C64.2064 33.3168 64.0198 33.47 63.8884 33.6665C63.7571 33.8631 63.687 34.0941 63.687 34.3305C63.6873 34.6472 63.8132 34.9509 64.0372 35.175C64.2611 35.399 64.5648 35.525 64.8815 35.5254Z" fill="white"/>
<path d="M26.8072 33.6969C27.1273 33.6971 27.4402 33.6025 27.7065 33.4248C27.9727 33.2472 28.1803 32.9946 28.3029 32.6989C28.4255 32.4033 28.4578 32.0779 28.3955 31.764C28.3332 31.4501 28.1792 31.1617 27.9529 30.9353C27.7267 30.7089 27.4384 30.5546 27.1245 30.4921C26.8106 30.4296 26.4852 30.4616 26.1895 30.584C25.8938 30.7064 25.641 30.9138 25.4632 31.1799C25.2854 31.446 25.1904 31.7589 25.1904 32.0789C25.1908 32.5077 25.3612 32.9189 25.6643 33.2222C25.9674 33.5255 26.3784 33.6963 26.8072 33.6969Z" fill="white"/>
<path d="M25.0383 41.1142C25.8024 40.9636 26.5944 41.0553 27.3038 41.3766C28.0131 41.6979 28.6045 42.2327 28.9952 42.9063C29.1899 43.2423 29.4323 43.5481 29.7149 43.8144L31.4423 45.4417C31.7627 45.7432 32.1522 45.9616 32.5765 46.0778L32.7777 46.1327C33.3462 46.2895 33.8645 46.5907 34.2822 47.007C34.6999 47.4233 35.0028 47.9406 35.1615 48.5086L36.0876 51.853C36.2018 52.2668 36.3944 52.6549 36.6548 52.9963L39.4608 56.6788C39.8011 57.1262 40.0274 57.6497 40.1201 58.2042L40.8859 62.8039C40.9043 62.915 40.9476 63.0206 41.0126 63.1127C41.0776 63.2047 41.1626 63.2809 41.2612 63.3354C41.3599 63.3899 41.4695 63.4214 41.5821 63.4275C41.6946 63.4336 41.807 63.4142 41.911 63.3706C42.141 63.274 42.3409 63.1172 42.4894 62.9167C42.638 62.7162 42.7299 62.4795 42.7554 62.2312C42.8496 61.3104 43.2161 60.4386 43.8081 59.7271L44.6212 58.7484C44.7734 58.5654 44.8877 58.354 44.9575 58.1265L45.7929 55.4139C46.0322 54.6316 46.51 53.9436 47.1595 53.4461L49.6669 51.5188C49.7687 51.4405 49.8536 51.3423 49.9163 51.2302C49.9791 51.1181 50.0184 50.9944 50.032 50.8667C50.0455 50.739 50.033 50.6098 49.9951 50.487C49.9572 50.3643 49.8949 50.2505 49.8117 50.1526L48.1574 48.2042C48.0607 48.0899 47.9672 47.9704 47.8802 47.8491L47.5845 47.4435L45.8497 49.7638C45.7997 49.8307 45.7347 49.885 45.6601 49.9224C45.5854 49.9598 45.503 49.9793 45.4195 49.9793C45.336 49.9793 45.2536 49.9598 45.1789 49.9224C45.1043 49.885 45.0394 49.8307 44.9893 49.7638L41.7406 45.4183C41.1624 44.6405 40.8221 43.7118 40.7607 42.7447C39.9476 42.3852 38.7841 42.3794 38.074 42.7602L36.7118 43.4907C36.3397 43.6904 35.9239 43.7947 35.5016 43.7944C35.0657 43.7952 34.6366 43.6857 34.2543 43.4763C33.872 43.2669 33.5488 42.9642 33.3147 42.5964L31.9918 40.5055C31.7023 40.0479 31.5525 39.5158 31.5608 38.9744C31.5692 38.433 31.7353 37.9058 32.0388 37.4574C32.3646 36.9726 32.8191 36.5883 33.3513 36.3476C33.8835 36.1069 34.4722 36.0193 35.0514 36.0947L37.054 36.3492C37.4191 36.3958 37.7899 36.3341 38.1203 36.1718C38.4507 36.0094 38.7261 35.7536 38.9124 35.4361C39.2134 34.9228 39.6588 34.5092 40.193 34.247C40.7272 33.9847 41.3267 33.8853 41.917 33.961L42.7843 34.0719C43.1056 34.1121 43.4318 34.0679 43.7308 33.9436C44.0297 33.8193 44.2911 33.6191 44.4891 33.3629L45.2538 32.3699C45.6036 31.9177 45.8001 31.3657 45.8144 30.7942C45.8288 30.2226 45.6605 29.6614 45.3338 29.1922L42.5902 25.2344C42.2851 25.2647 41.975 25.3002 41.6647 25.3406C41.5086 25.6988 41.3113 26.0377 41.077 26.3504L37.8287 30.6953C37.7787 30.7622 37.7138 30.8165 37.6391 30.8539C37.5644 30.8913 37.4821 30.9108 37.3985 30.9108C37.315 30.9108 37.2326 30.8913 37.158 30.8539C37.0833 30.8165 37.0184 30.7622 36.9684 30.6953L34.5767 27.496C33.3247 28.186 32.1232 28.9639 30.9813 29.8241C31.447 30.6406 31.6613 31.5765 31.5973 32.5144C31.5332 33.4522 31.1937 34.3503 30.6212 35.0959L27.3727 39.4408C27.3227 39.5077 27.2578 39.562 27.1831 39.5994C27.1084 39.6368 27.026 39.6563 26.9425 39.6563C26.859 39.6563 26.7766 39.6368 26.702 39.5994C26.6273 39.562 26.5624 39.5077 26.5124 39.4408L24.7897 37.1367C24.0632 38.616 23.4829 40.1626 23.0571 41.7547L24.9764 41.1303C24.9967 41.1237 25.0174 41.1184 25.0383 41.1142Z" fill="white"/>
<path d="M48.2381 44.7751C48.7821 44.066 49.054 43.1854 49.0044 42.293C48.8936 40.5874 47.522 38.8247 45.4195 38.8247C43.3171 38.8247 41.9455 40.5874 41.8348 42.2915C41.7929 43.1856 42.0654 44.0662 42.6049 44.7804L45.4195 48.5449L48.2381 44.7751ZM42.5936 42.4019C42.5938 41.8697 42.7518 41.3495 43.0477 40.9071C43.3435 40.4647 43.7639 40.12 44.2556 39.9165C44.7474 39.713 45.2884 39.6599 45.8103 39.7639C46.3323 39.8678 46.8116 40.1242 47.1879 40.5006C47.5641 40.877 47.8203 41.3565 47.924 41.8785C48.0278 42.4005 47.9744 42.9415 47.7707 43.4331C47.567 43.9248 47.2221 44.345 46.7795 44.6406C46.337 44.9363 45.8168 45.0941 45.2846 45.0941C44.571 45.0931 43.8869 44.8091 43.3824 44.3044C42.8779 43.7997 42.5942 43.1155 42.5936 42.4019Z" fill="white"/>
<path d="M45.2843 44.0199C46.1772 44.0199 46.9011 43.2955 46.9011 42.4019C46.9011 41.5083 46.1772 40.7839 45.2843 40.7839C44.3914 40.7839 43.6675 41.5083 43.6675 42.4019C43.6675 43.2955 44.3914 44.0199 45.2843 44.0199Z" fill="white"/>
<path d="M26.9425 38.2221L29.761 34.4516C30.3051 33.7425 30.577 32.8619 30.5274 31.9696C30.4165 30.2639 29.0449 28.5012 26.9425 28.5012C24.84 28.5012 23.4685 30.2639 23.3577 31.968C23.3158 32.8623 23.5884 33.743 24.128 34.4573L26.9425 38.2221ZM26.8071 29.3866C27.3397 29.3864 27.8603 29.5441 28.3032 29.8397C28.7461 30.1354 29.0913 30.5558 29.2953 31.0477C29.4992 31.5396 29.5527 32.081 29.4489 32.6033C29.3452 33.1256 29.0889 33.6054 28.7124 33.9821C28.3359 34.3587 27.8562 34.6152 27.334 34.7192C26.8117 34.8232 26.2703 34.7699 25.7783 34.5662C25.2863 34.3625 24.8658 34.0174 24.5699 33.5746C24.274 33.1319 24.1161 32.6113 24.1161 32.0788C24.1168 31.3651 24.4005 30.6809 24.9051 30.1761C25.4096 29.6714 26.0938 29.3875 26.8075 29.3866H26.8071Z" fill="white"/>
</svg>
