<svg width="240" height="241" viewBox="0 0 240 241" fill="none" xmlns="http://www.w3.org/2000/svg">
<g filter="url(#filter0_d_354_693)">
<rect x="30" y="28.5" width="180" height="180" rx="90" fill="white" shape-rendering="crispEdges"/>
<g clip-path="url(#clip0_354_693)">
<path d="M156.251 135.403C155.921 135.203 148.067 130.485 138.25 130.485C137.239 130.485 136.236 130.525 135.244 130.586C137.547 129.334 139.869 127.885 142.016 126.207C152.386 118.105 156.743 104.944 156.924 104.389C157.09 103.874 156.98 103.309 156.631 102.895C156.28 102.485 155.749 102.294 155.207 102.359C154.758 102.427 144.126 104.098 134.394 112.949C131.764 115.342 129.383 117.999 127.291 120.609C128.219 116.987 128.875 112.925 128.875 108.596C128.875 93.6229 121.136 81.6604 120.806 81.1596C120.229 80.2801 118.771 80.2801 118.194 81.1596C117.864 81.6604 110.125 93.6229 110.125 108.596C110.125 112.925 110.781 116.987 111.709 120.609C109.617 117.999 107.236 115.342 104.606 112.949C94.8736 104.098 84.2413 102.427 83.7928 102.359C83.2603 102.294 82.7217 102.485 82.3691 102.895C82.0198 103.309 81.9099 103.874 82.0762 104.389C82.2562 104.944 86.6141 118.106 96.984 126.207C99.1315 127.885 101.453 129.334 103.756 130.586C102.764 130.525 101.761 130.485 100.75 130.485C90.9325 130.485 83.0788 135.203 82.7492 135.403C82.2823 135.688 81.9985 136.197 82 136.743C82.0014 137.292 82.2899 137.798 82.7583 138.079C83.0925 138.279 91.053 142.993 100.75 142.993C102.913 142.993 105.045 142.682 107.07 142.21C103.755 146.116 103.866 150.652 103.877 150.877C103.898 151.358 104.139 151.804 104.531 152.083C104.798 152.274 105.116 152.373 105.438 152.373C105.587 152.373 105.737 152.352 105.883 152.309C106.118 152.239 111.709 150.533 115.994 145.579C116.762 144.691 117.381 143.811 117.938 142.947V153.937C117.938 154.801 118.637 155.5 119.5 155.5C120.364 155.5 121.063 154.801 121.063 153.937V142.947C121.619 143.811 122.239 144.691 123.007 145.579C127.292 150.533 132.882 152.239 133.117 152.309C133.264 152.352 133.413 152.373 133.563 152.373C133.885 152.373 134.202 152.274 134.469 152.083C134.862 151.804 135.103 151.358 135.124 150.877C135.134 150.652 135.247 146.104 131.919 142.195C133.955 142.675 136.093 142.993 138.25 142.993C148.068 142.993 155.922 138.275 156.251 138.075C156.717 137.791 157 137.284 157 136.739C157 136.194 156.716 135.687 156.251 135.403Z" fill="#212121"/>
<path d="M79.0711 71.4289L72 78.5L159.681 166.181L166.752 159.11L79.0711 71.4289Z" fill="white"/>
<path d="M75.4141 75.0857L163.095 162.767" stroke="#C70707" stroke-width="4"/>
<path d="M120 180.5C154.242 180.5 182 152.742 182 118.5C182 84.2583 154.242 56.5 120 56.5C85.7583 56.5 58 84.2583 58 118.5C58 152.742 85.7583 180.5 120 180.5Z" stroke="#C70707" stroke-width="4"/>
</g>
</g>
<defs>
<filter id="filter0_d_354_693" x="0" y="0.5" width="240" height="240" filterUnits="userSpaceOnUse" color-interpolation-filters="sRGB">
<feFlood flood-opacity="0" result="BackgroundImageFix"/>
<feColorMatrix in="SourceAlpha" type="matrix" values="0 0 0 0 0 0 0 0 0 0 0 0 0 0 0 0 0 0 127 0" result="hardAlpha"/>
<feOffset dy="2"/>
<feGaussianBlur stdDeviation="15"/>
<feComposite in2="hardAlpha" operator="out"/>
<feColorMatrix type="matrix" values="0 0 0 0 0 0 0 0 0 0 0 0 0 0 0 0 0 0 0.08 0"/>
<feBlend mode="normal" in2="BackgroundImageFix" result="effect1_dropShadow_354_693"/>
<feBlend mode="normal" in="SourceGraphic" in2="effect1_dropShadow_354_693" result="shape"/>
</filter>
<clipPath id="clip0_354_693">
<rect width="128" height="128" fill="white" transform="translate(56 54.5)"/>
</clipPath>
</defs>
</svg>
