<svg width="240" height="240" viewBox="0 0 240 240" fill="none" xmlns="http://www.w3.org/2000/svg">
<g filter="url(#filter0_d_354_641)">
<rect x="30" y="28" width="180" height="180" rx="90" fill="white" shape-rendering="crispEdges"/>
<g clip-path="url(#clip0_354_641)">
<path d="M152 146.248H148.125V142.497H91.875V146.248H88V150H152V146.248Z" fill="#212121"/>
<path d="M91.875 104.857H148.125V112.36H91.875V104.857Z" fill="#212121"/>
<path d="M95.625 116.111H106.875V138.745H95.625V116.111Z" fill="#212121"/>
<path d="M114.375 116.111H125.625V138.745H114.375V116.111Z" fill="#212121"/>
<path d="M133.125 116.111H144.375V138.745H133.125V116.111Z" fill="#212121"/>
<path d="M152 97.9235L120 86L88 97.9235V101.105H152V97.9235ZM121.875 97.3538H118.125V93.6023H121.875V97.3538Z" fill="#212121"/>
<path d="M79.0711 70.9289L72 78L159.681 165.681L166.752 158.61L79.0711 70.9289Z" fill="white"/>
<path d="M75.4141 74.5857L163.095 162.267" stroke="#C70707" stroke-width="4"/>
<path d="M120 180C154.242 180 182 152.242 182 118C182 83.7583 154.242 56 120 56C85.7583 56 58 83.7583 58 118C58 152.242 85.7583 180 120 180Z" stroke="#C70707" stroke-width="4"/>
</g>
</g>
<defs>
<filter id="filter0_d_354_641" x="0" y="0" width="240" height="240" filterUnits="userSpaceOnUse" color-interpolation-filters="sRGB">
<feFlood flood-opacity="0" result="BackgroundImageFix"/>
<feColorMatrix in="SourceAlpha" type="matrix" values="0 0 0 0 0 0 0 0 0 0 0 0 0 0 0 0 0 0 127 0" result="hardAlpha"/>
<feOffset dy="2"/>
<feGaussianBlur stdDeviation="15"/>
<feComposite in2="hardAlpha" operator="out"/>
<feColorMatrix type="matrix" values="0 0 0 0 0 0 0 0 0 0 0 0 0 0 0 0 0 0 0.08 0"/>
<feBlend mode="normal" in2="BackgroundImageFix" result="effect1_dropShadow_354_641"/>
<feBlend mode="normal" in="SourceGraphic" in2="effect1_dropShadow_354_641" result="shape"/>
</filter>
<clipPath id="clip0_354_641">
<rect width="128" height="128" fill="white" transform="translate(56 54)"/>
</clipPath>
</defs>
</svg>
