<svg width="240" height="240" viewBox="0 0 240 240" fill="none" xmlns="http://www.w3.org/2000/svg">
<g filter="url(#filter0_d_354_653)">
<rect x="30" y="28" width="180" height="180" rx="90" fill="white" shape-rendering="crispEdges"/>
<g clip-path="url(#clip0_354_653)">
<path d="M154.234 143.039L142.661 99.3709C142.405 98.4075 141.533 97.7366 140.537 97.7366H127.897C133.478 90.5946 128.41 80 119.239 80C110.066 80 105.001 90.5957 110.58 97.7365H97.0564C96.0465 97.7365 95.1668 98.4247 94.9237 99.4048L84.0647 143.187C83.9396 143.69 83.9971 144.222 84.2268 144.688L88.7111 153.775C89.0813 154.525 89.8452 155 90.6816 155H147.811C148.664 155 149.44 154.506 149.801 153.733L154.101 144.532C154.319 144.066 154.366 143.537 154.234 143.039ZM119.239 84.3945C122.874 84.3945 125.831 87.3516 125.831 90.9863C125.831 94.621 122.874 97.5781 119.239 97.5781C115.604 97.5781 112.647 94.621 112.647 90.9863C112.647 87.3516 115.604 84.3945 119.239 84.3945ZM121.314 138.315V139.414C121.314 140.627 120.33 141.611 119.117 141.611C117.903 141.611 116.919 140.627 116.919 139.414V138.478C115.265 138.2 113.699 137.588 112.505 136.807C111.49 136.143 111.205 134.781 111.869 133.766C112.534 132.75 113.896 132.465 114.911 133.13C116.58 134.222 119.196 134.577 120.623 133.905C121.67 133.413 122.453 132.372 122.571 131.316C122.816 129.118 120.321 128.132 118.41 127.377C116.413 126.588 114.15 125.694 112.851 123.349C110.969 119.951 112.759 115.309 116.919 114.031V113.105C116.919 111.892 117.903 110.908 119.117 110.908C120.33 110.908 121.314 111.892 121.314 113.105V113.876C122.632 114.164 123.864 114.749 124.807 115.619C125.699 116.442 125.755 117.832 124.933 118.724C124.11 119.616 122.72 119.672 121.828 118.849C120.954 118.043 118.723 117.745 117.551 118.532C116.625 119.155 116.233 120.386 116.695 121.22C117.699 123.033 121.279 123.212 124.058 125.377C129.278 129.445 126.953 136.74 121.314 138.315Z" fill="#212121"/>
<path d="M79.0711 70.9289L72 78L159.681 165.681L166.752 158.61L79.0711 70.9289Z" fill="white"/>
<path d="M75.4141 74.5857L163.095 162.267" stroke="#C70707" stroke-width="4"/>
<path d="M120 180C154.242 180 182 152.242 182 118C182 83.7583 154.242 56 120 56C85.7583 56 58 83.7583 58 118C58 152.242 85.7583 180 120 180Z" stroke="#C70707" stroke-width="4"/>
</g>
</g>
<defs>
<filter id="filter0_d_354_653" x="0" y="0" width="240" height="240" filterUnits="userSpaceOnUse" color-interpolation-filters="sRGB">
<feFlood flood-opacity="0" result="BackgroundImageFix"/>
<feColorMatrix in="SourceAlpha" type="matrix" values="0 0 0 0 0 0 0 0 0 0 0 0 0 0 0 0 0 0 127 0" result="hardAlpha"/>
<feOffset dy="2"/>
<feGaussianBlur stdDeviation="15"/>
<feComposite in2="hardAlpha" operator="out"/>
<feColorMatrix type="matrix" values="0 0 0 0 0 0 0 0 0 0 0 0 0 0 0 0 0 0 0.08 0"/>
<feBlend mode="normal" in2="BackgroundImageFix" result="effect1_dropShadow_354_653"/>
<feBlend mode="normal" in="SourceGraphic" in2="effect1_dropShadow_354_653" result="shape"/>
</filter>
<clipPath id="clip0_354_653">
<rect width="128" height="128" fill="white" transform="translate(56 54)"/>
</clipPath>
</defs>
</svg>
