<svg width="241" height="241" viewBox="0 0 241 241" fill="none" xmlns="http://www.w3.org/2000/svg">
<g filter="url(#filter0_d_354_535)">
<rect x="30.5" y="28.5" width="180" height="180" rx="90" fill="white" shape-rendering="crispEdges"/>
<g clip-path="url(#clip0_354_535)">
<path d="M98.4861 101.265V134.735H87.2256V109.776H81.5V101.265H98.4861ZM127.876 117.091C129.308 117.984 130.405 119.084 131.168 120.391C131.964 121.666 132.361 123.132 132.361 124.79C132.361 126.925 131.725 128.806 130.453 130.432C129.212 132.057 127.447 133.316 125.157 134.209C122.898 135.07 120.306 135.5 117.379 135.5C114.453 135.5 111.844 135.07 109.554 134.209C107.296 133.316 105.53 132.057 104.258 130.432C103.017 128.806 102.397 126.925 102.397 124.79C102.397 123.132 102.779 121.666 103.542 120.391C104.337 119.084 105.451 117.984 106.882 117.091C104.687 115.338 103.59 113.139 103.59 110.493C103.59 108.485 104.162 106.732 105.308 105.234C106.485 103.735 108.107 102.572 110.174 101.743C112.274 100.914 114.675 100.5 117.379 100.5C120.083 100.5 122.469 100.914 124.536 101.743C126.636 102.572 128.258 103.735 129.403 105.234C130.58 106.732 131.168 108.485 131.168 110.493C131.168 113.139 130.071 115.338 127.876 117.091ZM117.379 108.103C116.584 108.103 115.932 108.358 115.423 108.868C114.946 109.378 114.707 110.079 114.707 110.971C114.707 111.864 114.946 112.565 115.423 113.075C115.932 113.585 116.584 113.84 117.379 113.84C118.174 113.84 118.811 113.585 119.288 113.075C119.797 112.565 120.051 111.864 120.051 110.971C120.051 110.079 119.797 109.378 119.288 108.868C118.811 108.358 118.174 108.103 117.379 108.103ZM117.379 127.897C118.461 127.897 119.335 127.579 120.003 126.941C120.703 126.304 121.053 125.459 121.053 124.407C121.053 123.355 120.703 122.511 120.003 121.873C119.335 121.235 118.461 120.917 117.379 120.917C116.298 120.917 115.407 121.235 114.707 121.873C114.039 122.511 113.705 123.355 113.705 124.407C113.705 125.459 114.039 126.304 114.707 126.941C115.407 127.579 116.298 127.897 117.379 127.897ZM160.5 122.064H152.627V129.715H144.038V122.064H136.166V113.936H144.038V106.285H152.627V113.936H160.5V122.064Z" fill="#212121"/>
<path d="M79.5711 71.4289L72.5 78.5L160.181 166.181L167.252 159.11L79.5711 71.4289Z" fill="white"/>
<path d="M75.9141 75.0857L163.595 162.767" stroke="#C70707" stroke-width="4"/>
<path d="M120.5 180.5C154.742 180.5 182.5 152.742 182.5 118.5C182.5 84.2583 154.742 56.5 120.5 56.5C86.2583 56.5 58.5 84.2583 58.5 118.5C58.5 152.742 86.2583 180.5 120.5 180.5Z" stroke="#C70707" stroke-width="4"/>
</g>
</g>
<defs>
<filter id="filter0_d_354_535" x="0.5" y="0.5" width="240" height="240" filterUnits="userSpaceOnUse" color-interpolation-filters="sRGB">
<feFlood flood-opacity="0" result="BackgroundImageFix"/>
<feColorMatrix in="SourceAlpha" type="matrix" values="0 0 0 0 0 0 0 0 0 0 0 0 0 0 0 0 0 0 127 0" result="hardAlpha"/>
<feOffset dy="2"/>
<feGaussianBlur stdDeviation="15"/>
<feComposite in2="hardAlpha" operator="out"/>
<feColorMatrix type="matrix" values="0 0 0 0 0 0 0 0 0 0 0 0 0 0 0 0 0 0 0.08 0"/>
<feBlend mode="normal" in2="BackgroundImageFix" result="effect1_dropShadow_354_535"/>
<feBlend mode="normal" in="SourceGraphic" in2="effect1_dropShadow_354_535" result="shape"/>
</filter>
<clipPath id="clip0_354_535">
<rect width="128" height="128" fill="white" transform="translate(56.5 54.5)"/>
</clipPath>
</defs>
</svg>
