<svg width="71" height="60" viewBox="0 0 71 60" fill="none" xmlns="http://www.w3.org/2000/svg">
<path d="M0.256836 0.227539H28.5488V27.2188C28.5488 35.5293 26.4531 42.3945 22.2617 47.8145C17.998 53.2344 11.8193 57.1006 3.72559 59.4131L0.365234 49.2236C3.11133 48.2842 5.3877 47.2725 7.19434 46.1885C9.00098 45.1768 10.4463 43.9844 11.5303 42.6113C12.6143 41.3105 13.373 39.793 13.8066 38.0586C14.2402 36.3242 14.457 34.3008 14.457 31.9883H0.256836V0.227539ZM42.4238 0.227539H70.7158V27.2188C70.7158 35.5293 68.6201 42.3945 64.4287 47.8145C60.165 53.2344 53.9863 57.1006 45.8926 59.4131L42.5322 49.2236C45.2783 48.2842 47.5547 47.2725 49.3613 46.1885C51.168 45.1768 52.6133 43.9844 53.6973 42.6113C54.7812 41.3105 55.54 39.793 55.9736 38.0586C56.4072 36.3242 56.624 34.3008 56.624 31.9883H42.4238V0.227539Z" fill="#1BAD4E"/>
</svg>
